# xmcd CD database file
#
# Track frame offsets:
#	150
#	34063
#	70424
#	104502
#	143789
#	168292
#	197807
#	229153
#	268568
#	301833
#
# Disc length: 4498 seconds
#
# Revision: 0
# Processed by: cddbd v1.5.2PL0 Copyright (c) Steve Scherf et al.
# Submitted via: CDex 1.70beta2
#
DISCID=8911900a
DTITLE=Tonu Naissoo Trio - Blue Pearl
DYEAR=2010
DGENRE=Jazz
TTITLE0=Moon Ray
TTITLE1=Water Lily
TTITLE2=Just Talkin' A Ride
TTITLE3=Blue Pearl
TTITLE4=I'll Close My Eyes
TTITLE5=It's A Dance
TTITLE6=For Minors Only
TTITLE7=Love Theme From Sunflower
TTITLE8=Why Do I Love You?
TTITLE9=Country
EXTD=YEAR: 2010
EXTT0=
EXTT1=
EXTT2=
EXTT3=
EXTT4=
EXTT5=
EXTT6=
EXTT7=
EXTT8=
EXTT9=
PLAYORDER=
